<?xml version="1.0" encoding="utf-8"?>
<!-- Generator: Adobe Illustrator 22.1.0, SVG Export Plug-In . SVG Version: 6.00 Build 0)  -->
<svg version="1.1" id="Layer_1" xmlns="http://www.w3.org/2000/svg" xmlns:xlink="http://www.w3.org/1999/xlink" x="0px" y="0px"
	 viewBox="0 0 15 15" style="enable-background:new 0 0 15 15;" xml:space="preserve">
<style type="text/css">
	.st0{fill:none;}
	.st1{fill:#FFFFFF;}
</style>
<g>
	<rect id="canvas_background" x="-1" y="-1" class="st0" width="17" height="17"/>
</g>
<g>
	<path id="svg_1" class="st1" d="M10.3,7.5l4.2-4.2C15,2.8,15,2,14.5,1.5l-0.9-0.9c-0.5-0.5-1.3-0.5-1.9,0L7.5,4.7L3.3,0.5
		C2.8,0,2,0,1.5,0.5L0.5,1.5C0,2,0,2.8,0.5,3.3l4.2,4.2l-4.2,4.2c-0.5,0.5-0.5,1.3,0,1.9l0.9,0.9C2,15,2.8,15,3.3,14.5l4.2-4.2
		l4.2,4.2c0.5,0.5,1.3,0.5,1.9,0l0.9-0.9c0.5-0.5,0.5-1.3,0-1.9C14.5,11.7,10.3,7.5,10.3,7.5z"/>
</g>
</svg>
