<svg xmlns="http://www.w3.org/2000/svg" xmlns:xlink="http://www.w3.org/1999/xlink" version="1.1" x="0px" y="0px" viewBox="0 0 52 65" style="enable-background:new 0 0 52 52;" xml:space="preserve"><g><path d="M45.9,11.1c2.2-7.8,0.3-8.7-0.3-9c-0.6-0.3-2.5-1.1-7,5.5l0,0c-0.1,0.1-1.2,1.8-1.1,1.7l0,0c-0.5,0.8-1,1.6-1.5,2.5V5   c0-1.7-1.3-3-3-3H11.6l-0.3,0.3c0,0,0,0,0,0l-9,9c0,0,0,0,0,0L2,11.6V47c0,1.7,1.3,3,3,3h28c1.7,0,3-1.3,3-3V33.5   c3.6-6.2,7.2-13.7,9.3-20.4l0,0l0,0l2.3,1.1c-4.5,10.5-7.4,13.8-4.9,13.8c1.2,0,0.7-0.7,7.1-13.8C50.6,12.6,48,12.4,45.9,11.1z    M44.7,4c0.2,0.3,0.5,1.9-0.7,6.3l-3.7-1.7C43,4.8,44.5,4,44.7,4z M11,5.4V11H5.4L11,5.4z M33,48C5.5,47.6,4,48.9,4,47V13h8   c0.6,0,1-0.4,1-1V4h20c1.8,0,0.6,2.3,1,11.5c-2.6,5-5.3,11.6-6.7,15.6l0,0c0,0.1-0.6,2.1-0.6,1.9l0,0c-1.5,5.3-1.1,7.4-0.5,8.3   c-0.4,1.2-2.1,2.9-0.7,3.6c1.3,0.6,1.6-1.2,2.5-2.8c1-0.1,2.9-1.1,6-5.6V47C34,47.6,33.5,48,33,48z M27.9,40.2   c-0.2-0.4-0.4-2.1,0.7-6.3c0.2,0.1,3.8,1.8,3.7,1.7C29.7,39.2,28.3,40.2,27.9,40.2z M33.3,34c-0.2-0.1-4.5-2.1-4.2-2   c1.1-3.5,3.3-8.7,4.9-12.1v0c1.5-3.2,3.3-6.7,5.3-9.7c0.1,0.1,4.4,2,4.2,2C41.3,19.3,36.8,28.4,33.3,34z"/><rect x="8" y="17" width="2" height="2"/><rect x="21" y="17" width="2" height="2"/><rect x="8" y="30" width="2" height="2"/><rect x="21" y="30" width="2" height="2"/><rect x="12" y="17" width="7" height="2"/><rect x="12" y="30" width="7" height="2"/><rect x="8" y="21" width="2" height="7"/><rect x="21" y="21" width="2" height="7"/><path d="M18,9h11c0.6,0,1-0.4,1-1s-0.4-1-1-1H18c-0.6,0-1,0.4-1,1S17.4,9,18,9z"/><path d="M18,13h11c1.3,0,1.3-2,0-2H18c-0.6,0-1,0.4-1,1S17.4,13,18,13z"/><path d="M22,37H8c-0.6,0-1,0.4-1,1s0.4,1,1,1h14c0.6,0,1-0.4,1-1S22.5,37,22,37z"/><path d="M22,42H8c-0.6,0-1,0.4-1,1s0.4,1,1,1h14c0.6,0,1-0.4,1-1S22.5,42,22,42z"/></g></svg>