<svg width="15" height="15" xmlns="http://www.w3.org/2000/svg"><g><rect fill="none" id="canvas_background" height="17" width="17" y="-1" x="-1"/></g><g><path fill="#ffffff"  id="svg_1" d="m10.35554,7.5625l4.19166,-4.19166c0.51506,-0.51506 0.51506,-1.34837 0,-1.86342l-0.92962,-0.92962c-0.51506,-0.51506 -1.34837,-0.51506 -1.86342,0l-4.19166,4.19166l-4.19166,-4.19166c-0.51087,-0.51506 -1.34837,-0.51506 -1.85924,0l-0.93381,0.92962c-0.51506,0.51506 -0.51506,1.34837 0,1.86342l4.19166,4.19166l-4.19166,4.19166c-0.51506,0.51506 -0.51506,1.34837 0,1.86342l0.92962,0.92962c0.51506,0.51506 1.34837,0.51506 1.86342,0l4.19166,-4.19166l4.19166,4.19166c0.51506,0.51506 1.34837,0.51506 1.86342,0l0.92962,-0.92962c0.51506,-0.51506 0.51506,-1.34837 0,-1.86342l-2.09583,-2.09583l-2.09583,-2.09583z"/></g></svg>